<svg width="5" height="5" viewBox="0 0 5 5" fill="none" xmlns="http://www.w3.org/2000/svg">
<g clip-path="url(#clip0_1_10)">
<path d="M2.5 0C1.125 0 0 1.125 0 2.5C0 3.875 1.125 5 2.5 5C3.875 5 5 3.875 5 2.5C5 1.125 3.875 0 2.5 0ZM2.5 0.625C2.9125 0.625 3.2875 0.75625 3.59375 0.975L0.975 3.59375C0.75625 3.2875 0.625 2.9125 0.625 2.5C0.625 1.4625 1.4625 0.625 2.5 0.625ZM4.025 1.40625C4.24375 1.7125 4.375 2.0875 4.375 2.5C4.375 3.5375 3.5375 4.375 2.5 4.375C2.0875 4.375 1.7125 4.24375 1.40625 4.025L4.025 1.40625Z" fill="#D70000"/>
</g>
<defs>
<clipPath id="clip0_1_10">
<rect width="5" height="5" fill="white"/>
</clipPath>
</defs>
</svg>
