<svg width="5" height="5" viewBox="0 0 5 5" fill="none" xmlns="http://www.w3.org/2000/svg">
<g clip-path="url(#clip0_1_2)">
<path d="M2.5 0C1.12105 0 0 1.12105 0 2.5C0 3.87895 1.12105 5 2.5 5C3.87895 5 5 3.87895 5 2.5C5 1.12105 3.87895 0 2.5 0ZM2.5 4.69473C1.28947 4.69473 0.305263 3.71053 0.305263 2.5C0.305263 1.28947 1.28947 0.305263 2.5 0.305263C3.71053 0.305263 4.69474 1.28947 4.69474 2.5C4.69474 3.71053 3.71053 4.69473 2.5 4.69473Z" fill="#16AE02"/>
<path d="M3.6579 1.71052L2.17895 3.18947L1.42632 2.43684C1.35263 2.36315 1.23158 2.36315 1.1579 2.43684C1.08421 2.51052 1.08421 2.63158 1.1579 2.70526L2.04211 3.58947C2.07895 3.62631 2.12632 3.64736 2.17895 3.64736C2.23158 3.64736 2.27895 3.62631 2.31579 3.58947L3.92632 1.97894C4 1.90526 4 1.78421 3.92632 1.71052C3.85263 1.63684 3.73684 1.63684 3.6579 1.71052Z" fill="#16AE02"/>
</g>
<defs>
<clipPath id="clip0_1_2">
<rect width="5" height="5" fill="white"/>
</clipPath>
</defs>
</svg>
